<svg width="318" height="151" viewBox="0 0 318 151" fill="none" xmlns="http://www.w3.org/2000/svg">
<path d="M53.4033 0.909993H63.9643L116.769 128H103.523L87.0553 88.262H29.9543L13.6653 128H0.240285L53.4033 0.909993ZM84.1913 78.417L58.5943 15.588L32.6393 78.417H84.1913ZM187.058 34.92H118.501V23.643H206.39L142.129 150.733H128.167L187.058 34.92ZM254.254 0.909993H264.815L317.62 128H304.374L287.906 88.262H230.805L214.516 128H201.091L254.254 0.909993ZM285.042 78.417L259.445 15.588L233.49 78.417H285.042Z" fill="url(#paint0_linear)"/>
<path d="M53.4033 0.909992V-0.0900078H52.7376L52.4808 0.524086L53.4033 0.909992ZM63.9643 0.909992L64.8877 0.526302L64.6317 -0.0900078H63.9643V0.909992ZM116.769 128V129H118.268L117.693 127.616L116.769 128ZM103.523 128L102.599 128.383L102.855 129H103.523V128ZM87.0553 88.262L87.9791 87.8792L87.7233 87.262H87.0553V88.262ZM29.9543 88.262V87.262H29.2834L29.029 87.8827L29.9543 88.262ZM13.6653 128V129H14.3361L14.5906 128.379L13.6653 128ZM0.240285 128L-0.682253 127.614L-1.26199 129H0.240285V128ZM84.1913 78.417V79.417H85.6785L85.1174 78.0397L84.1913 78.417ZM58.5943 15.588L59.5204 15.2107L58.6007 12.9533L57.67 15.2062L58.5943 15.588ZM32.6393 78.417L31.715 78.0352L31.1442 79.417H32.6393V78.417ZM53.4033 1.90999H63.9643V-0.0900078H53.4033V1.90999ZM63.0408 1.29369L115.846 128.384L117.693 127.616L64.8877 0.526302L63.0408 1.29369ZM116.769 127H103.523V129H116.769V127ZM104.447 127.617L87.9791 87.8792L86.1315 88.6448L102.599 128.383L104.447 127.617ZM87.0553 87.262H29.9543V89.262H87.0553V87.262ZM29.029 87.8827L12.74 127.621L14.5906 128.379L30.8796 88.6413L29.029 87.8827ZM13.6653 127H0.240285V129H13.6653V127ZM1.16282 128.386L54.3258 1.2959L52.4808 0.524086L-0.682253 127.614L1.16282 128.386ZM85.1174 78.0397L59.5204 15.2107L57.6682 15.9653L83.2652 78.7943L85.1174 78.0397ZM57.67 15.2062L31.715 78.0352L33.5635 78.7988L59.5185 15.9698L57.67 15.2062ZM32.6393 79.417H84.1913V77.417H32.6393V79.417ZM187.058 34.92L187.949 35.3733L188.688 33.92H187.058V34.92ZM118.501 34.92H117.501V35.92H118.501V34.92ZM118.501 23.643V22.643H117.501V23.643H118.501ZM206.39 23.643L207.282 24.0942L208.016 22.643H206.39V23.643ZM142.129 150.733V151.733H142.743L143.021 151.184L142.129 150.733ZM128.167 150.733L127.275 150.28L126.536 151.733H128.167V150.733ZM187.058 33.92H118.501V35.92H187.058V33.92ZM119.501 34.92V23.643H117.501V34.92H119.501ZM118.501 24.643H206.39V22.643H118.501V24.643ZM205.497 23.1918L141.236 150.282L143.021 151.184L207.282 24.0942L205.497 23.1918ZM142.129 149.733H128.167V151.733H142.129V149.733ZM129.058 151.186L187.949 35.3733L186.166 34.4667L127.275 150.28L129.058 151.186ZM254.254 0.909992V-0.0900078H253.588L253.331 0.524086L254.254 0.909992ZM264.815 0.909992L265.738 0.526302L265.482 -0.0900078H264.815V0.909992ZM317.62 128V129H319.118L318.543 127.616L317.62 128ZM304.374 128L303.45 128.383L303.706 129H304.374V128ZM287.906 88.262L288.83 87.8792L288.574 87.262H287.906V88.262ZM230.805 88.262V87.262H230.134L229.88 87.8827L230.805 88.262ZM214.516 128V129H215.187L215.441 128.379L214.516 128ZM201.091 128L200.168 127.614L199.589 129H201.091V128ZM285.042 78.417V79.417H286.529L285.968 78.0397L285.042 78.417ZM259.445 15.588L260.371 15.2107L259.451 12.9533L258.521 15.2062L259.445 15.588ZM233.49 78.417L232.566 78.0352L231.995 79.417H233.49V78.417ZM254.254 1.90999H264.815V-0.0900078H254.254V1.90999ZM263.891 1.29369L316.696 128.384L318.543 127.616L265.738 0.526302L263.891 1.29369ZM317.62 127H304.374V129H317.62V127ZM305.298 127.617L288.83 87.8792L286.982 88.6448L303.45 128.383L305.298 127.617ZM287.906 87.262H230.805V89.262H287.906V87.262ZM229.88 87.8827L213.591 127.621L215.441 128.379L231.73 88.6413L229.88 87.8827ZM214.516 127H201.091V129H214.516V127ZM202.013 128.386L255.176 1.2959L253.331 0.524086L200.168 127.614L202.013 128.386ZM285.968 78.0397L260.371 15.2107L258.519 15.9653L284.116 78.7943L285.968 78.0397ZM258.521 15.2062L232.566 78.0352L234.414 78.7988L260.369 15.9698L258.521 15.2062ZM233.49 79.417H285.042V77.417H233.49V79.417Z" fill="url(#paint1_linear)"/>
<defs>
<linearGradient id="paint0_linear" x1="159" y1="-40" x2="159" y2="170" gradientUnits="userSpaceOnUse">
<stop stop-color="#DFDFDF"/>
<stop offset="1" stop-color="white" stop-opacity="0"/>
</linearGradient>
<linearGradient id="paint1_linear" x1="159" y1="-40" x2="159" y2="170" gradientUnits="userSpaceOnUse">
<stop stop-color="#A7A7A7"/>
<stop offset="1" stop-color="#7E7E7E" stop-opacity="0.12"/>
</linearGradient>
</defs>
</svg>
